<svg xmlns="http://www.w3.org/2000/svg" viewBox="0 0 900 150" width="100%" height="150">
  <defs>
    <style>
      .doodle-font { font-family: "Comic Sans MS", "Chalkboard SE", "Marker Felt", cursive, sans-serif; font-size: 15px; font-weight: 700; fill: #FFFFFF; letter-spacing: 1px; text-transform: uppercase; }
      .bg-scroll {
        animation: scroll 72.3s linear infinite;
      }
      .fg-scroll {
        animation: scroll 34.5s linear infinite;
      }
      @keyframes scroll {
        from { transform: translateX(0); }
        to { transform: translateX(-2170px); } /* We rely on fg_w and bg_w being rendered seamlessly */
      }
      .fg-scroll {
        /* Override animation to use its own width */
        animation: scroll-fg 34.5s linear infinite;
      }
      @keyframes scroll-fg {
        from { transform: translateX(0); }
        to { transform: translateX(-2072px); }
      }
      
      .swing {
        transform-origin: 450px -200px;
        animation: swing 2.5s ease-in-out infinite alternate;
      }
      @keyframes swing {
        0% { transform: rotate(-14deg); }
        100% { transform: rotate(14deg); }
      }
      
      .blur-effect {
        filter: blur(0.5px);
      }
    </style>
    
    <!-- Halftone Sky -->
    <pattern id="halftone" x="0" y="0" width="6" height="6" patternUnits="userSpaceOnUse" patternTransform="rotate(45)">
      <circle cx="3" cy="3" r="1.5" fill="#E23636" opacity="0.05" />
    </pattern>
    <linearGradient id="sky" x1="0" y1="0" x2="0" y2="1">
      <stop offset="0%" stop-color="#0a0514" />
      <stop offset="100%" stop-color="#1b0a2e" />
    </linearGradient>
  </defs>

  <!-- Sky Background -->
  <rect x="0" y="0" width="900" height="150" fill="url(#sky)" />
  <rect x="0" y="0" width="900" height="150" fill="url(#halftone)" />

  <!-- Background Buildings (Slow) -->
  <g class="bg-scroll blur-effect">
    <g><rect x="0" y="96" width="70" height="54" fill="#1a0f2e" />
<rect x="70" y="75" width="31" height="75" fill="#1a0f2e" />
<rect x="101" y="82" width="45" height="68" fill="#1a0f2e" />
<rect x="146" y="97" width="38" height="53" fill="#1a0f2e" />
<rect x="184" y="41" width="73" height="109" fill="#1a0f2e" />
<rect x="257" y="56" width="35" height="94" fill="#1a0f2e" />
<rect x="292" y="107" width="32" height="43" fill="#1a0f2e" />
<rect x="324" y="83" width="35" height="67" fill="#1a0f2e" />
<rect x="359" y="46" width="44" height="104" fill="#1a0f2e" />
<rect x="403" y="107" width="68" height="43" fill="#1a0f2e" />
<rect x="471" y="85" width="65" height="65" fill="#1a0f2e" />
<rect x="536" y="41" width="75" height="109" fill="#1a0f2e" />
<rect x="611" y="82" width="56" height="68" fill="#1a0f2e" />
<rect x="667" y="75" width="58" height="75" fill="#1a0f2e" />
<rect x="725" y="90" width="30" height="60" fill="#1a0f2e" />
<rect x="755" y="56" width="74" height="94" fill="#1a0f2e" />
<rect x="829" y="75" width="51" height="75" fill="#1a0f2e" />
<rect x="880" y="83" width="39" height="67" fill="#1a0f2e" />
<rect x="919" y="67" width="78" height="83" fill="#1a0f2e" />
<rect x="997" y="99" width="36" height="51" fill="#1a0f2e" />
<rect x="1033" y="98" width="54" height="52" fill="#1a0f2e" />
<rect x="1087" y="66" width="52" height="84" fill="#1a0f2e" />
<rect x="1139" y="77" width="68" height="73" fill="#1a0f2e" />
<rect x="1207" y="52" width="32" height="98" fill="#1a0f2e" />
<rect x="1239" y="95" width="64" height="55" fill="#1a0f2e" />
<rect x="1303" y="100" width="54" height="50" fill="#1a0f2e" />
<rect x="1357" y="73" width="65" height="77" fill="#1a0f2e" />
<rect x="1422" y="64" width="70" height="86" fill="#1a0f2e" />
<rect x="1492" y="86" width="66" height="64" fill="#1a0f2e" />
<rect x="1558" y="102" width="75" height="48" fill="#1a0f2e" />
<rect x="1633" y="81" width="32" height="69" fill="#1a0f2e" />
<rect x="1665" y="73" width="79" height="77" fill="#1a0f2e" />
<rect x="1744" y="81" width="35" height="69" fill="#1a0f2e" />
<rect x="1779" y="62" width="36" height="88" fill="#1a0f2e" />
<rect x="1815" y="52" width="47" height="98" fill="#1a0f2e" />
<rect x="1862" y="64" width="70" height="86" fill="#1a0f2e" />
<rect x="1932" y="63" width="40" height="87" fill="#1a0f2e" />
<rect x="1972" y="84" width="52" height="66" fill="#1a0f2e" />
<rect x="2024" y="76" width="72" height="74" fill="#1a0f2e" />
<rect x="2096" y="101" width="74" height="49" fill="#1a0f2e" />
</g><g transform="translate(2170, 0)"><rect x="0" y="96" width="70" height="54" fill="#1a0f2e" />
<rect x="70" y="75" width="31" height="75" fill="#1a0f2e" />
<rect x="101" y="82" width="45" height="68" fill="#1a0f2e" />
<rect x="146" y="97" width="38" height="53" fill="#1a0f2e" />
<rect x="184" y="41" width="73" height="109" fill="#1a0f2e" />
<rect x="257" y="56" width="35" height="94" fill="#1a0f2e" />
<rect x="292" y="107" width="32" height="43" fill="#1a0f2e" />
<rect x="324" y="83" width="35" height="67" fill="#1a0f2e" />
<rect x="359" y="46" width="44" height="104" fill="#1a0f2e" />
<rect x="403" y="107" width="68" height="43" fill="#1a0f2e" />
<rect x="471" y="85" width="65" height="65" fill="#1a0f2e" />
<rect x="536" y="41" width="75" height="109" fill="#1a0f2e" />
<rect x="611" y="82" width="56" height="68" fill="#1a0f2e" />
<rect x="667" y="75" width="58" height="75" fill="#1a0f2e" />
<rect x="725" y="90" width="30" height="60" fill="#1a0f2e" />
<rect x="755" y="56" width="74" height="94" fill="#1a0f2e" />
<rect x="829" y="75" width="51" height="75" fill="#1a0f2e" />
<rect x="880" y="83" width="39" height="67" fill="#1a0f2e" />
<rect x="919" y="67" width="78" height="83" fill="#1a0f2e" />
<rect x="997" y="99" width="36" height="51" fill="#1a0f2e" />
<rect x="1033" y="98" width="54" height="52" fill="#1a0f2e" />
<rect x="1087" y="66" width="52" height="84" fill="#1a0f2e" />
<rect x="1139" y="77" width="68" height="73" fill="#1a0f2e" />
<rect x="1207" y="52" width="32" height="98" fill="#1a0f2e" />
<rect x="1239" y="95" width="64" height="55" fill="#1a0f2e" />
<rect x="1303" y="100" width="54" height="50" fill="#1a0f2e" />
<rect x="1357" y="73" width="65" height="77" fill="#1a0f2e" />
<rect x="1422" y="64" width="70" height="86" fill="#1a0f2e" />
<rect x="1492" y="86" width="66" height="64" fill="#1a0f2e" />
<rect x="1558" y="102" width="75" height="48" fill="#1a0f2e" />
<rect x="1633" y="81" width="32" height="69" fill="#1a0f2e" />
<rect x="1665" y="73" width="79" height="77" fill="#1a0f2e" />
<rect x="1744" y="81" width="35" height="69" fill="#1a0f2e" />
<rect x="1779" y="62" width="36" height="88" fill="#1a0f2e" />
<rect x="1815" y="52" width="47" height="98" fill="#1a0f2e" />
<rect x="1862" y="64" width="70" height="86" fill="#1a0f2e" />
<rect x="1932" y="63" width="40" height="87" fill="#1a0f2e" />
<rect x="1972" y="84" width="52" height="66" fill="#1a0f2e" />
<rect x="2024" y="76" width="72" height="74" fill="#1a0f2e" />
<rect x="2096" y="101" width="74" height="49" fill="#1a0f2e" />
</g>
  </g>

  <!-- Foreground Buildings (Fast) -->
  <g class="fg-scroll">
    <g><rect x="0" y="80" width="78" height="70" fill="#0d1b2a" />
<rect x="5" y="110" width="5" height="10" fill="#FF2A2A" opacity="0.3817012468809642" />
<rect x="20" y="90" width="5" height="10" fill="#FF2A2A" opacity="0.6199998799270464" />
<rect x="20" y="110" width="5" height="10" fill="#FF2A2A" opacity="0.6423071254949373" />
<rect x="20" y="130" width="5" height="10" fill="#FF2A2A" opacity="0.6879999557731225" />
<rect x="50" y="130" width="5" height="10" fill="#FF2A2A" opacity="0.7381838132363344" />
<rect x="65" y="110" width="5" height="10" fill="#FF2A2A" opacity="0.4978159505303321" />
<rect x="65" y="130" width="5" height="10" fill="#FF2A2A" opacity="0.5294259262936993" />
<rect x="78" y="112" width="56" height="38" fill="#0d1b2a" />
<rect x="98" y="122" width="5" height="10" fill="#FF2A2A" opacity="0.4313708042614676" />
<rect x="113" y="122" width="5" height="10" fill="#FF2A2A" opacity="0.7489114418012385" />
<rect x="134" y="97" width="65" height="53" fill="#0d1b2a" />
<rect x="139" y="127" width="5" height="10" fill="#FF2A2A" opacity="0.5547631468382322" />
<rect x="169" y="127" width="5" height="10" fill="#FF2A2A" opacity="0.696039682181482" />
<rect x="184" y="107" width="5" height="10" fill="#FF2A2A" opacity="0.33176385307597855" />
<rect x="199" y="87" width="69" height="63" fill="#0d1b2a" />
<rect x="204" y="117" width="5" height="10" fill="#FF2A2A" opacity="0.7712154306899048" />
<rect x="204" y="137" width="5" height="10" fill="#FF2A2A" opacity="0.3572758714918433" />
<rect x="219" y="97" width="5" height="10" fill="#FF2A2A" opacity="0.6754388997958048" />
<rect x="219" y="117" width="5" height="10" fill="#FF2A2A" opacity="0.4700877365155226" />
<rect x="234" y="137" width="5" height="10" fill="#FF2A2A" opacity="0.6598403344429621" />
<rect x="249" y="97" width="5" height="10" fill="#FF2A2A" opacity="0.6809810995260324" />
<rect x="249" y="117" width="5" height="10" fill="#FF2A2A" opacity="0.3532054113988525" />
<rect x="249" y="137" width="5" height="10" fill="#FF2A2A" opacity="0.7208346740862335" />
<rect x="268" y="82" width="72" height="68" fill="#0d1b2a" />
<rect x="288" y="92" width="5" height="10" fill="#FF2A2A" opacity="0.7612170403091374" />
<rect x="288" y="112" width="5" height="10" fill="#FF2A2A" opacity="0.5994722922301146" />
<rect x="288" y="132" width="5" height="10" fill="#FF2A2A" opacity="0.3559338626604475" />
<rect x="303" y="112" width="5" height="10" fill="#FF2A2A" opacity="0.7033874023985643" />
<rect x="318" y="112" width="5" height="10" fill="#FF2A2A" opacity="0.33937852414568304" />
<rect x="318" y="132" width="5" height="10" fill="#FF2A2A" opacity="0.7080116267100443" />
<rect x="340" y="86" width="88" height="64" fill="#0d1b2a" />
<rect x="345" y="96" width="5" height="10" fill="#FF2A2A" opacity="0.3641957322498814" />
<rect x="345" y="116" width="5" height="10" fill="#FF2A2A" opacity="0.5749017967474719" />
<rect x="360" y="96" width="5" height="10" fill="#FF2A2A" opacity="0.5115689701004434" />
<rect x="360" y="136" width="5" height="10" fill="#FF2A2A" opacity="0.6649655345449881" />
<rect x="375" y="136" width="5" height="10" fill="#FF2A2A" opacity="0.6249390288197267" />
<rect x="390" y="96" width="5" height="10" fill="#FF2A2A" opacity="0.5587879205177952" />
<rect x="405" y="116" width="5" height="10" fill="#FF2A2A" opacity="0.4150573662982885" />
<rect x="428" y="75" width="44" height="75" fill="#0d1b2a" />
<rect x="433" y="85" width="5" height="10" fill="#FF2A2A" opacity="0.4144708919055772" />
<rect x="433" y="105" width="5" height="10" fill="#FF2A2A" opacity="0.7298177001268733" />
<rect x="448" y="105" width="5" height="10" fill="#FF2A2A" opacity="0.4071184036852193" />
<rect x="472" y="84" width="99" height="66" fill="#0d1b2a" />
<rect x="477" y="94" width="5" height="10" fill="#FF2A2A" opacity="0.42149862119786224" />
<rect x="477" y="114" width="5" height="10" fill="#FF2A2A" opacity="0.5035299807429683" />
<rect x="492" y="94" width="5" height="10" fill="#FF2A2A" opacity="0.4771487832947769" />
<rect x="492" y="114" width="5" height="10" fill="#FF2A2A" opacity="0.7319183741848017" />
<rect x="507" y="94" width="5" height="10" fill="#FF2A2A" opacity="0.6230898756474922" />
<rect x="507" y="134" width="5" height="10" fill="#FF2A2A" opacity="0.7002962554308494" />
<rect x="522" y="134" width="5" height="10" fill="#FF2A2A" opacity="0.3700911485473872" />
<rect x="537" y="114" width="5" height="10" fill="#FF2A2A" opacity="0.73724297703529" />
<rect x="552" y="94" width="5" height="10" fill="#FF2A2A" opacity="0.7279834462341863" />
<rect x="552" y="134" width="5" height="10" fill="#FF2A2A" opacity="0.5702939690501525" />
<rect x="571" y="115" width="40" height="35" fill="#0d1b2a" />
<rect x="576" y="125" width="5" height="10" fill="#FF2A2A" opacity="0.7243478672071527" />
<rect x="611" y="90" width="71" height="60" fill="#0d1b2a" />
<rect x="616" y="120" width="5" height="10" fill="#FF2A2A" opacity="0.32931769998608945" />
<rect x="631" y="120" width="5" height="10" fill="#FF2A2A" opacity="0.43260152908607596" />
<rect x="646" y="100" width="5" height="10" fill="#FF2A2A" opacity="0.5275041836695716" />
<rect x="646" y="120" width="5" height="10" fill="#FF2A2A" opacity="0.7786588204298366" />
<rect x="661" y="100" width="5" height="10" fill="#FF2A2A" opacity="0.5778841617028091" />
<rect x="661" y="120" width="5" height="10" fill="#FF2A2A" opacity="0.37739841263703205" />
<rect x="682" y="107" width="58" height="43" fill="#0d1b2a" />
<rect x="687" y="117" width="5" height="10" fill="#FF2A2A" opacity="0.589590145408128" />
<rect x="687" y="137" width="5" height="10" fill="#FF2A2A" opacity="0.673987780189532" />
<rect x="702" y="137" width="5" height="10" fill="#FF2A2A" opacity="0.5514251914597568" />
<rect x="717" y="117" width="5" height="10" fill="#FF2A2A" opacity="0.3787163639697416" />
<rect x="717" y="137" width="5" height="10" fill="#FF2A2A" opacity="0.3400557326202934" />
<rect x="740" y="116" width="51" height="34" fill="#0d1b2a" />
<rect x="745" y="126" width="5" height="10" fill="#FF2A2A" opacity="0.6376062768020451" />
<rect x="791" y="84" width="96" height="66" fill="#0d1b2a" />
<rect x="796" y="114" width="5" height="10" fill="#FF2A2A" opacity="0.6096907551660515" />
<rect x="796" y="134" width="5" height="10" fill="#FF2A2A" opacity="0.5918361446456124" />
<rect x="811" y="94" width="5" height="10" fill="#FF2A2A" opacity="0.7673531288682136" />
<rect x="811" y="134" width="5" height="10" fill="#FF2A2A" opacity="0.419342976307923" />
<rect x="826" y="114" width="5" height="10" fill="#FF2A2A" opacity="0.4499985398993811" />
<rect x="841" y="94" width="5" height="10" fill="#FF2A2A" opacity="0.33627155724657865" />
<rect x="841" y="114" width="5" height="10" fill="#FF2A2A" opacity="0.7992272204272212" />
<rect x="841" y="134" width="5" height="10" fill="#FF2A2A" opacity="0.3366303605498165" />
<rect x="856" y="134" width="5" height="10" fill="#FF2A2A" opacity="0.7404320868432197" />
<rect x="871" y="94" width="5" height="10" fill="#FF2A2A" opacity="0.48476354436944197" />
<rect x="871" y="134" width="5" height="10" fill="#FF2A2A" opacity="0.6517699625436855" />
<rect x="887" y="79" width="79" height="71" fill="#0d1b2a" />
<rect x="892" y="89" width="5" height="10" fill="#FF2A2A" opacity="0.6339316018562917" />
<rect x="892" y="109" width="5" height="10" fill="#FF2A2A" opacity="0.7658780197180387" />
<rect x="907" y="89" width="5" height="10" fill="#FF2A2A" opacity="0.4322329607435638" />
<rect x="907" y="109" width="5" height="10" fill="#FF2A2A" opacity="0.6712083419904993" />
<rect x="937" y="89" width="5" height="10" fill="#FF2A2A" opacity="0.7264564076959487" />
<rect x="937" y="109" width="5" height="10" fill="#FF2A2A" opacity="0.42556062603494704" />
<rect x="937" y="129" width="5" height="10" fill="#FF2A2A" opacity="0.3253994468312653" />
<rect x="952" y="89" width="5" height="10" fill="#FF2A2A" opacity="0.7146740446861096" />
<rect x="966" y="80" width="48" height="70" fill="#0d1b2a" />
<rect x="971" y="90" width="5" height="10" fill="#FF2A2A" opacity="0.38079098813694306" />
<rect x="971" y="110" width="5" height="10" fill="#FF2A2A" opacity="0.6528337233799953" />
<rect x="971" y="130" width="5" height="10" fill="#FF2A2A" opacity="0.3559369402946675" />
<rect x="986" y="90" width="5" height="10" fill="#FF2A2A" opacity="0.6455098118779382" />
<rect x="1001" y="110" width="5" height="10" fill="#FF2A2A" opacity="0.5148933564403859" />
<rect x="1014" y="70" width="63" height="80" fill="#0d1b2a" />
<rect x="1019" y="80" width="5" height="10" fill="#FF2A2A" opacity="0.3199474390556091" />
<rect x="1019" y="120" width="5" height="10" fill="#FF2A2A" opacity="0.6334667053177715" />
<rect x="1034" y="100" width="5" height="10" fill="#FF2A2A" opacity="0.7373563617705456" />
<rect x="1034" y="120" width="5" height="10" fill="#FF2A2A" opacity="0.6747388055717696" />
<rect x="1049" y="80" width="5" height="10" fill="#FF2A2A" opacity="0.4183686661146793" />
<rect x="1049" y="120" width="5" height="10" fill="#FF2A2A" opacity="0.3885261851601906" />
<rect x="1064" y="80" width="5" height="10" fill="#FF2A2A" opacity="0.3896803317091035" />
<rect x="1064" y="100" width="5" height="10" fill="#FF2A2A" opacity="0.6911932480738159" />
<rect x="1064" y="120" width="5" height="10" fill="#FF2A2A" opacity="0.6349535646440984" />
<rect x="1077" y="105" width="87" height="45" fill="#0d1b2a" />
<rect x="1082" y="135" width="5" height="10" fill="#FF2A2A" opacity="0.35404781320147855" />
<rect x="1097" y="115" width="5" height="10" fill="#FF2A2A" opacity="0.7292966256688909" />
<rect x="1112" y="115" width="5" height="10" fill="#FF2A2A" opacity="0.530151617339471" />
<rect x="1127" y="115" width="5" height="10" fill="#FF2A2A" opacity="0.41379774370388517" />
<rect x="1164" y="116" width="95" height="34" fill="#0d1b2a" />
<rect x="1169" y="126" width="5" height="10" fill="#FF2A2A" opacity="0.4395624963609357" />
<rect x="1184" y="126" width="5" height="10" fill="#FF2A2A" opacity="0.4998391921800304" />
<rect x="1199" y="126" width="5" height="10" fill="#FF2A2A" opacity="0.5681078662393609" />
<rect x="1214" y="126" width="5" height="10" fill="#FF2A2A" opacity="0.3576708759257138" />
<rect x="1229" y="126" width="5" height="10" fill="#FF2A2A" opacity="0.3892839080862318" />
<rect x="1244" y="126" width="5" height="10" fill="#FF2A2A" opacity="0.4327331812614843" />
<rect x="1259" y="82" width="46" height="68" fill="#0d1b2a" />
<rect x="1264" y="92" width="5" height="10" fill="#FF2A2A" opacity="0.6642725303263521" />
<rect x="1264" y="132" width="5" height="10" fill="#FF2A2A" opacity="0.555711529834739" />
<rect x="1279" y="112" width="5" height="10" fill="#FF2A2A" opacity="0.42736125306929096" />
<rect x="1279" y="132" width="5" height="10" fill="#FF2A2A" opacity="0.3008456391093147" />
<rect x="1294" y="92" width="5" height="10" fill="#FF2A2A" opacity="0.5692259985463959" />
<rect x="1294" y="112" width="5" height="10" fill="#FF2A2A" opacity="0.6709750389197382" />
<rect x="1294" y="132" width="5" height="10" fill="#FF2A2A" opacity="0.4821107358906321" />
<rect x="1305" y="78" width="44" height="72" fill="#0d1b2a" />
<rect x="1310" y="88" width="5" height="10" fill="#FF2A2A" opacity="0.6115777049732045" />
<rect x="1310" y="108" width="5" height="10" fill="#FF2A2A" opacity="0.36231265783218386" />
<rect x="1310" y="128" width="5" height="10" fill="#FF2A2A" opacity="0.5535612520176345" />
<rect x="1325" y="88" width="5" height="10" fill="#FF2A2A" opacity="0.4630914524286999" />
<rect x="1325" y="108" width="5" height="10" fill="#FF2A2A" opacity="0.5772062388333968" />
<rect x="1349" y="96" width="82" height="54" fill="#0d1b2a" />
<rect x="1354" y="106" width="5" height="10" fill="#FF2A2A" opacity="0.7514027728662913" />
<rect x="1354" y="126" width="5" height="10" fill="#FF2A2A" opacity="0.45047493728278265" />
<rect x="1369" y="106" width="5" height="10" fill="#FF2A2A" opacity="0.30020296984864375" />
<rect x="1384" y="106" width="5" height="10" fill="#FF2A2A" opacity="0.589992390597841" />
<rect x="1384" y="126" width="5" height="10" fill="#FF2A2A" opacity="0.5324940951235071" />
<rect x="1399" y="106" width="5" height="10" fill="#FF2A2A" opacity="0.40685070049455013" />
<rect x="1399" y="126" width="5" height="10" fill="#FF2A2A" opacity="0.7505904129141271" />
<rect x="1414" y="106" width="5" height="10" fill="#FF2A2A" opacity="0.38484569809902736" />
<rect x="1431" y="78" width="72" height="72" fill="#0d1b2a" />
<rect x="1436" y="88" width="5" height="10" fill="#FF2A2A" opacity="0.46759412770490044" />
<rect x="1436" y="108" width="5" height="10" fill="#FF2A2A" opacity="0.6755690687703662" />
<rect x="1436" y="128" width="5" height="10" fill="#FF2A2A" opacity="0.4123203329986441" />
<rect x="1466" y="88" width="5" height="10" fill="#FF2A2A" opacity="0.7248688473123659" />
<rect x="1466" y="128" width="5" height="10" fill="#FF2A2A" opacity="0.6148826903688569" />
<rect x="1481" y="108" width="5" height="10" fill="#FF2A2A" opacity="0.5471885845052185" />
<rect x="1503" y="76" width="81" height="74" fill="#0d1b2a" />
<rect x="1508" y="106" width="5" height="10" fill="#FF2A2A" opacity="0.6850230942870126" />
<rect x="1523" y="86" width="5" height="10" fill="#FF2A2A" opacity="0.3879433408532658" />
<rect x="1523" y="106" width="5" height="10" fill="#FF2A2A" opacity="0.5589788752218704" />
<rect x="1538" y="106" width="5" height="10" fill="#FF2A2A" opacity="0.5282309127350863" />
<rect x="1538" y="126" width="5" height="10" fill="#FF2A2A" opacity="0.6337888662931765" />
<rect x="1553" y="86" width="5" height="10" fill="#FF2A2A" opacity="0.5977261592347098" />
<rect x="1553" y="106" width="5" height="10" fill="#FF2A2A" opacity="0.7457129629052185" />
<rect x="1553" y="126" width="5" height="10" fill="#FF2A2A" opacity="0.6596369806379836" />
<rect x="1568" y="86" width="5" height="10" fill="#FF2A2A" opacity="0.7152845848607075" />
<rect x="1568" y="106" width="5" height="10" fill="#FF2A2A" opacity="0.748604051616631" />
<rect x="1568" y="126" width="5" height="10" fill="#FF2A2A" opacity="0.5373372184115266" />
<rect x="1584" y="72" width="56" height="78" fill="#0d1b2a" />
<rect x="1589" y="102" width="5" height="10" fill="#FF2A2A" opacity="0.6829068421485827" />
<rect x="1589" y="122" width="5" height="10" fill="#FF2A2A" opacity="0.6133742184908906" />
<rect x="1619" y="122" width="5" height="10" fill="#FF2A2A" opacity="0.36918703075807785" />
<rect x="1640" y="96" width="54" height="54" fill="#0d1b2a" />
<rect x="1645" y="106" width="5" height="10" fill="#FF2A2A" opacity="0.653209570847276" />
<rect x="1660" y="106" width="5" height="10" fill="#FF2A2A" opacity="0.5713055702519576" />
<rect x="1660" y="126" width="5" height="10" fill="#FF2A2A" opacity="0.4034171947572051" />
<rect x="1675" y="106" width="5" height="10" fill="#FF2A2A" opacity="0.7524192391700885" />
<rect x="1675" y="126" width="5" height="10" fill="#FF2A2A" opacity="0.647761493248984" />
<rect x="1694" y="72" width="94" height="78" fill="#0d1b2a" />
<rect x="1699" y="82" width="5" height="10" fill="#FF2A2A" opacity="0.5384898662786785" />
<rect x="1699" y="102" width="5" height="10" fill="#FF2A2A" opacity="0.4493063261861917" />
<rect x="1714" y="82" width="5" height="10" fill="#FF2A2A" opacity="0.7178643353992002" />
<rect x="1714" y="102" width="5" height="10" fill="#FF2A2A" opacity="0.6673170303781788" />
<rect x="1714" y="122" width="5" height="10" fill="#FF2A2A" opacity="0.7489056736995976" />
<rect x="1729" y="82" width="5" height="10" fill="#FF2A2A" opacity="0.4364676558816283" />
<rect x="1729" y="102" width="5" height="10" fill="#FF2A2A" opacity="0.494428601623064" />
<rect x="1729" y="122" width="5" height="10" fill="#FF2A2A" opacity="0.6990711622100945" />
<rect x="1744" y="82" width="5" height="10" fill="#FF2A2A" opacity="0.7202528315312793" />
<rect x="1744" y="102" width="5" height="10" fill="#FF2A2A" opacity="0.7903609887594616" />
<rect x="1744" y="122" width="5" height="10" fill="#FF2A2A" opacity="0.7534644312933841" />
<rect x="1759" y="82" width="5" height="10" fill="#FF2A2A" opacity="0.6314998784180806" />
<rect x="1759" y="122" width="5" height="10" fill="#FF2A2A" opacity="0.733425677797565" />
<rect x="1788" y="100" width="69" height="50" fill="#0d1b2a" />
<rect x="1793" y="130" width="5" height="10" fill="#FF2A2A" opacity="0.439128307819403" />
<rect x="1808" y="110" width="5" height="10" fill="#FF2A2A" opacity="0.5107824133793694" />
<rect x="1808" y="130" width="5" height="10" fill="#FF2A2A" opacity="0.5351534181065234" />
<rect x="1823" y="110" width="5" height="10" fill="#FF2A2A" opacity="0.3260428041216277" />
<rect x="1823" y="130" width="5" height="10" fill="#FF2A2A" opacity="0.4121110828598741" />
<rect x="1838" y="130" width="5" height="10" fill="#FF2A2A" opacity="0.3201290687703833" />
<rect x="1857" y="105" width="41" height="45" fill="#0d1b2a" />
<rect x="1898" y="113" width="82" height="37" fill="#0d1b2a" />
<rect x="1903" y="123" width="5" height="10" fill="#FF2A2A" opacity="0.4089822704532518" />
<rect x="1918" y="123" width="5" height="10" fill="#FF2A2A" opacity="0.6834490491781204" />
<rect x="1948" y="123" width="5" height="10" fill="#FF2A2A" opacity="0.6739628259776429" />
<rect x="1980" y="110" width="92" height="40" fill="#0d1b2a" />
<rect x="1985" y="120" width="5" height="10" fill="#FF2A2A" opacity="0.3540493748288033" />
<rect x="2030" y="120" width="5" height="10" fill="#FF2A2A" opacity="0.779086419102948" />
<rect x="2060" y="120" width="5" height="10" fill="#FF2A2A" opacity="0.33799823892152997" />
</g><g transform="translate(2072, 0)"><rect x="0" y="80" width="78" height="70" fill="#0d1b2a" />
<rect x="5" y="110" width="5" height="10" fill="#FF2A2A" opacity="0.3817012468809642" />
<rect x="20" y="90" width="5" height="10" fill="#FF2A2A" opacity="0.6199998799270464" />
<rect x="20" y="110" width="5" height="10" fill="#FF2A2A" opacity="0.6423071254949373" />
<rect x="20" y="130" width="5" height="10" fill="#FF2A2A" opacity="0.6879999557731225" />
<rect x="50" y="130" width="5" height="10" fill="#FF2A2A" opacity="0.7381838132363344" />
<rect x="65" y="110" width="5" height="10" fill="#FF2A2A" opacity="0.4978159505303321" />
<rect x="65" y="130" width="5" height="10" fill="#FF2A2A" opacity="0.5294259262936993" />
<rect x="78" y="112" width="56" height="38" fill="#0d1b2a" />
<rect x="98" y="122" width="5" height="10" fill="#FF2A2A" opacity="0.4313708042614676" />
<rect x="113" y="122" width="5" height="10" fill="#FF2A2A" opacity="0.7489114418012385" />
<rect x="134" y="97" width="65" height="53" fill="#0d1b2a" />
<rect x="139" y="127" width="5" height="10" fill="#FF2A2A" opacity="0.5547631468382322" />
<rect x="169" y="127" width="5" height="10" fill="#FF2A2A" opacity="0.696039682181482" />
<rect x="184" y="107" width="5" height="10" fill="#FF2A2A" opacity="0.33176385307597855" />
<rect x="199" y="87" width="69" height="63" fill="#0d1b2a" />
<rect x="204" y="117" width="5" height="10" fill="#FF2A2A" opacity="0.7712154306899048" />
<rect x="204" y="137" width="5" height="10" fill="#FF2A2A" opacity="0.3572758714918433" />
<rect x="219" y="97" width="5" height="10" fill="#FF2A2A" opacity="0.6754388997958048" />
<rect x="219" y="117" width="5" height="10" fill="#FF2A2A" opacity="0.4700877365155226" />
<rect x="234" y="137" width="5" height="10" fill="#FF2A2A" opacity="0.6598403344429621" />
<rect x="249" y="97" width="5" height="10" fill="#FF2A2A" opacity="0.6809810995260324" />
<rect x="249" y="117" width="5" height="10" fill="#FF2A2A" opacity="0.3532054113988525" />
<rect x="249" y="137" width="5" height="10" fill="#FF2A2A" opacity="0.7208346740862335" />
<rect x="268" y="82" width="72" height="68" fill="#0d1b2a" />
<rect x="288" y="92" width="5" height="10" fill="#FF2A2A" opacity="0.7612170403091374" />
<rect x="288" y="112" width="5" height="10" fill="#FF2A2A" opacity="0.5994722922301146" />
<rect x="288" y="132" width="5" height="10" fill="#FF2A2A" opacity="0.3559338626604475" />
<rect x="303" y="112" width="5" height="10" fill="#FF2A2A" opacity="0.7033874023985643" />
<rect x="318" y="112" width="5" height="10" fill="#FF2A2A" opacity="0.33937852414568304" />
<rect x="318" y="132" width="5" height="10" fill="#FF2A2A" opacity="0.7080116267100443" />
<rect x="340" y="86" width="88" height="64" fill="#0d1b2a" />
<rect x="345" y="96" width="5" height="10" fill="#FF2A2A" opacity="0.3641957322498814" />
<rect x="345" y="116" width="5" height="10" fill="#FF2A2A" opacity="0.5749017967474719" />
<rect x="360" y="96" width="5" height="10" fill="#FF2A2A" opacity="0.5115689701004434" />
<rect x="360" y="136" width="5" height="10" fill="#FF2A2A" opacity="0.6649655345449881" />
<rect x="375" y="136" width="5" height="10" fill="#FF2A2A" opacity="0.6249390288197267" />
<rect x="390" y="96" width="5" height="10" fill="#FF2A2A" opacity="0.5587879205177952" />
<rect x="405" y="116" width="5" height="10" fill="#FF2A2A" opacity="0.4150573662982885" />
<rect x="428" y="75" width="44" height="75" fill="#0d1b2a" />
<rect x="433" y="85" width="5" height="10" fill="#FF2A2A" opacity="0.4144708919055772" />
<rect x="433" y="105" width="5" height="10" fill="#FF2A2A" opacity="0.7298177001268733" />
<rect x="448" y="105" width="5" height="10" fill="#FF2A2A" opacity="0.4071184036852193" />
<rect x="472" y="84" width="99" height="66" fill="#0d1b2a" />
<rect x="477" y="94" width="5" height="10" fill="#FF2A2A" opacity="0.42149862119786224" />
<rect x="477" y="114" width="5" height="10" fill="#FF2A2A" opacity="0.5035299807429683" />
<rect x="492" y="94" width="5" height="10" fill="#FF2A2A" opacity="0.4771487832947769" />
<rect x="492" y="114" width="5" height="10" fill="#FF2A2A" opacity="0.7319183741848017" />
<rect x="507" y="94" width="5" height="10" fill="#FF2A2A" opacity="0.6230898756474922" />
<rect x="507" y="134" width="5" height="10" fill="#FF2A2A" opacity="0.7002962554308494" />
<rect x="522" y="134" width="5" height="10" fill="#FF2A2A" opacity="0.3700911485473872" />
<rect x="537" y="114" width="5" height="10" fill="#FF2A2A" opacity="0.73724297703529" />
<rect x="552" y="94" width="5" height="10" fill="#FF2A2A" opacity="0.7279834462341863" />
<rect x="552" y="134" width="5" height="10" fill="#FF2A2A" opacity="0.5702939690501525" />
<rect x="571" y="115" width="40" height="35" fill="#0d1b2a" />
<rect x="576" y="125" width="5" height="10" fill="#FF2A2A" opacity="0.7243478672071527" />
<rect x="611" y="90" width="71" height="60" fill="#0d1b2a" />
<rect x="616" y="120" width="5" height="10" fill="#FF2A2A" opacity="0.32931769998608945" />
<rect x="631" y="120" width="5" height="10" fill="#FF2A2A" opacity="0.43260152908607596" />
<rect x="646" y="100" width="5" height="10" fill="#FF2A2A" opacity="0.5275041836695716" />
<rect x="646" y="120" width="5" height="10" fill="#FF2A2A" opacity="0.7786588204298366" />
<rect x="661" y="100" width="5" height="10" fill="#FF2A2A" opacity="0.5778841617028091" />
<rect x="661" y="120" width="5" height="10" fill="#FF2A2A" opacity="0.37739841263703205" />
<rect x="682" y="107" width="58" height="43" fill="#0d1b2a" />
<rect x="687" y="117" width="5" height="10" fill="#FF2A2A" opacity="0.589590145408128" />
<rect x="687" y="137" width="5" height="10" fill="#FF2A2A" opacity="0.673987780189532" />
<rect x="702" y="137" width="5" height="10" fill="#FF2A2A" opacity="0.5514251914597568" />
<rect x="717" y="117" width="5" height="10" fill="#FF2A2A" opacity="0.3787163639697416" />
<rect x="717" y="137" width="5" height="10" fill="#FF2A2A" opacity="0.3400557326202934" />
<rect x="740" y="116" width="51" height="34" fill="#0d1b2a" />
<rect x="745" y="126" width="5" height="10" fill="#FF2A2A" opacity="0.6376062768020451" />
<rect x="791" y="84" width="96" height="66" fill="#0d1b2a" />
<rect x="796" y="114" width="5" height="10" fill="#FF2A2A" opacity="0.6096907551660515" />
<rect x="796" y="134" width="5" height="10" fill="#FF2A2A" opacity="0.5918361446456124" />
<rect x="811" y="94" width="5" height="10" fill="#FF2A2A" opacity="0.7673531288682136" />
<rect x="811" y="134" width="5" height="10" fill="#FF2A2A" opacity="0.419342976307923" />
<rect x="826" y="114" width="5" height="10" fill="#FF2A2A" opacity="0.4499985398993811" />
<rect x="841" y="94" width="5" height="10" fill="#FF2A2A" opacity="0.33627155724657865" />
<rect x="841" y="114" width="5" height="10" fill="#FF2A2A" opacity="0.7992272204272212" />
<rect x="841" y="134" width="5" height="10" fill="#FF2A2A" opacity="0.3366303605498165" />
<rect x="856" y="134" width="5" height="10" fill="#FF2A2A" opacity="0.7404320868432197" />
<rect x="871" y="94" width="5" height="10" fill="#FF2A2A" opacity="0.48476354436944197" />
<rect x="871" y="134" width="5" height="10" fill="#FF2A2A" opacity="0.6517699625436855" />
<rect x="887" y="79" width="79" height="71" fill="#0d1b2a" />
<rect x="892" y="89" width="5" height="10" fill="#FF2A2A" opacity="0.6339316018562917" />
<rect x="892" y="109" width="5" height="10" fill="#FF2A2A" opacity="0.7658780197180387" />
<rect x="907" y="89" width="5" height="10" fill="#FF2A2A" opacity="0.4322329607435638" />
<rect x="907" y="109" width="5" height="10" fill="#FF2A2A" opacity="0.6712083419904993" />
<rect x="937" y="89" width="5" height="10" fill="#FF2A2A" opacity="0.7264564076959487" />
<rect x="937" y="109" width="5" height="10" fill="#FF2A2A" opacity="0.42556062603494704" />
<rect x="937" y="129" width="5" height="10" fill="#FF2A2A" opacity="0.3253994468312653" />
<rect x="952" y="89" width="5" height="10" fill="#FF2A2A" opacity="0.7146740446861096" />
<rect x="966" y="80" width="48" height="70" fill="#0d1b2a" />
<rect x="971" y="90" width="5" height="10" fill="#FF2A2A" opacity="0.38079098813694306" />
<rect x="971" y="110" width="5" height="10" fill="#FF2A2A" opacity="0.6528337233799953" />
<rect x="971" y="130" width="5" height="10" fill="#FF2A2A" opacity="0.3559369402946675" />
<rect x="986" y="90" width="5" height="10" fill="#FF2A2A" opacity="0.6455098118779382" />
<rect x="1001" y="110" width="5" height="10" fill="#FF2A2A" opacity="0.5148933564403859" />
<rect x="1014" y="70" width="63" height="80" fill="#0d1b2a" />
<rect x="1019" y="80" width="5" height="10" fill="#FF2A2A" opacity="0.3199474390556091" />
<rect x="1019" y="120" width="5" height="10" fill="#FF2A2A" opacity="0.6334667053177715" />
<rect x="1034" y="100" width="5" height="10" fill="#FF2A2A" opacity="0.7373563617705456" />
<rect x="1034" y="120" width="5" height="10" fill="#FF2A2A" opacity="0.6747388055717696" />
<rect x="1049" y="80" width="5" height="10" fill="#FF2A2A" opacity="0.4183686661146793" />
<rect x="1049" y="120" width="5" height="10" fill="#FF2A2A" opacity="0.3885261851601906" />
<rect x="1064" y="80" width="5" height="10" fill="#FF2A2A" opacity="0.3896803317091035" />
<rect x="1064" y="100" width="5" height="10" fill="#FF2A2A" opacity="0.6911932480738159" />
<rect x="1064" y="120" width="5" height="10" fill="#FF2A2A" opacity="0.6349535646440984" />
<rect x="1077" y="105" width="87" height="45" fill="#0d1b2a" />
<rect x="1082" y="135" width="5" height="10" fill="#FF2A2A" opacity="0.35404781320147855" />
<rect x="1097" y="115" width="5" height="10" fill="#FF2A2A" opacity="0.7292966256688909" />
<rect x="1112" y="115" width="5" height="10" fill="#FF2A2A" opacity="0.530151617339471" />
<rect x="1127" y="115" width="5" height="10" fill="#FF2A2A" opacity="0.41379774370388517" />
<rect x="1164" y="116" width="95" height="34" fill="#0d1b2a" />
<rect x="1169" y="126" width="5" height="10" fill="#FF2A2A" opacity="0.4395624963609357" />
<rect x="1184" y="126" width="5" height="10" fill="#FF2A2A" opacity="0.4998391921800304" />
<rect x="1199" y="126" width="5" height="10" fill="#FF2A2A" opacity="0.5681078662393609" />
<rect x="1214" y="126" width="5" height="10" fill="#FF2A2A" opacity="0.3576708759257138" />
<rect x="1229" y="126" width="5" height="10" fill="#FF2A2A" opacity="0.3892839080862318" />
<rect x="1244" y="126" width="5" height="10" fill="#FF2A2A" opacity="0.4327331812614843" />
<rect x="1259" y="82" width="46" height="68" fill="#0d1b2a" />
<rect x="1264" y="92" width="5" height="10" fill="#FF2A2A" opacity="0.6642725303263521" />
<rect x="1264" y="132" width="5" height="10" fill="#FF2A2A" opacity="0.555711529834739" />
<rect x="1279" y="112" width="5" height="10" fill="#FF2A2A" opacity="0.42736125306929096" />
<rect x="1279" y="132" width="5" height="10" fill="#FF2A2A" opacity="0.3008456391093147" />
<rect x="1294" y="92" width="5" height="10" fill="#FF2A2A" opacity="0.5692259985463959" />
<rect x="1294" y="112" width="5" height="10" fill="#FF2A2A" opacity="0.6709750389197382" />
<rect x="1294" y="132" width="5" height="10" fill="#FF2A2A" opacity="0.4821107358906321" />
<rect x="1305" y="78" width="44" height="72" fill="#0d1b2a" />
<rect x="1310" y="88" width="5" height="10" fill="#FF2A2A" opacity="0.6115777049732045" />
<rect x="1310" y="108" width="5" height="10" fill="#FF2A2A" opacity="0.36231265783218386" />
<rect x="1310" y="128" width="5" height="10" fill="#FF2A2A" opacity="0.5535612520176345" />
<rect x="1325" y="88" width="5" height="10" fill="#FF2A2A" opacity="0.4630914524286999" />
<rect x="1325" y="108" width="5" height="10" fill="#FF2A2A" opacity="0.5772062388333968" />
<rect x="1349" y="96" width="82" height="54" fill="#0d1b2a" />
<rect x="1354" y="106" width="5" height="10" fill="#FF2A2A" opacity="0.7514027728662913" />
<rect x="1354" y="126" width="5" height="10" fill="#FF2A2A" opacity="0.45047493728278265" />
<rect x="1369" y="106" width="5" height="10" fill="#FF2A2A" opacity="0.30020296984864375" />
<rect x="1384" y="106" width="5" height="10" fill="#FF2A2A" opacity="0.589992390597841" />
<rect x="1384" y="126" width="5" height="10" fill="#FF2A2A" opacity="0.5324940951235071" />
<rect x="1399" y="106" width="5" height="10" fill="#FF2A2A" opacity="0.40685070049455013" />
<rect x="1399" y="126" width="5" height="10" fill="#FF2A2A" opacity="0.7505904129141271" />
<rect x="1414" y="106" width="5" height="10" fill="#FF2A2A" opacity="0.38484569809902736" />
<rect x="1431" y="78" width="72" height="72" fill="#0d1b2a" />
<rect x="1436" y="88" width="5" height="10" fill="#FF2A2A" opacity="0.46759412770490044" />
<rect x="1436" y="108" width="5" height="10" fill="#FF2A2A" opacity="0.6755690687703662" />
<rect x="1436" y="128" width="5" height="10" fill="#FF2A2A" opacity="0.4123203329986441" />
<rect x="1466" y="88" width="5" height="10" fill="#FF2A2A" opacity="0.7248688473123659" />
<rect x="1466" y="128" width="5" height="10" fill="#FF2A2A" opacity="0.6148826903688569" />
<rect x="1481" y="108" width="5" height="10" fill="#FF2A2A" opacity="0.5471885845052185" />
<rect x="1503" y="76" width="81" height="74" fill="#0d1b2a" />
<rect x="1508" y="106" width="5" height="10" fill="#FF2A2A" opacity="0.6850230942870126" />
<rect x="1523" y="86" width="5" height="10" fill="#FF2A2A" opacity="0.3879433408532658" />
<rect x="1523" y="106" width="5" height="10" fill="#FF2A2A" opacity="0.5589788752218704" />
<rect x="1538" y="106" width="5" height="10" fill="#FF2A2A" opacity="0.5282309127350863" />
<rect x="1538" y="126" width="5" height="10" fill="#FF2A2A" opacity="0.6337888662931765" />
<rect x="1553" y="86" width="5" height="10" fill="#FF2A2A" opacity="0.5977261592347098" />
<rect x="1553" y="106" width="5" height="10" fill="#FF2A2A" opacity="0.7457129629052185" />
<rect x="1553" y="126" width="5" height="10" fill="#FF2A2A" opacity="0.6596369806379836" />
<rect x="1568" y="86" width="5" height="10" fill="#FF2A2A" opacity="0.7152845848607075" />
<rect x="1568" y="106" width="5" height="10" fill="#FF2A2A" opacity="0.748604051616631" />
<rect x="1568" y="126" width="5" height="10" fill="#FF2A2A" opacity="0.5373372184115266" />
<rect x="1584" y="72" width="56" height="78" fill="#0d1b2a" />
<rect x="1589" y="102" width="5" height="10" fill="#FF2A2A" opacity="0.6829068421485827" />
<rect x="1589" y="122" width="5" height="10" fill="#FF2A2A" opacity="0.6133742184908906" />
<rect x="1619" y="122" width="5" height="10" fill="#FF2A2A" opacity="0.36918703075807785" />
<rect x="1640" y="96" width="54" height="54" fill="#0d1b2a" />
<rect x="1645" y="106" width="5" height="10" fill="#FF2A2A" opacity="0.653209570847276" />
<rect x="1660" y="106" width="5" height="10" fill="#FF2A2A" opacity="0.5713055702519576" />
<rect x="1660" y="126" width="5" height="10" fill="#FF2A2A" opacity="0.4034171947572051" />
<rect x="1675" y="106" width="5" height="10" fill="#FF2A2A" opacity="0.7524192391700885" />
<rect x="1675" y="126" width="5" height="10" fill="#FF2A2A" opacity="0.647761493248984" />
<rect x="1694" y="72" width="94" height="78" fill="#0d1b2a" />
<rect x="1699" y="82" width="5" height="10" fill="#FF2A2A" opacity="0.5384898662786785" />
<rect x="1699" y="102" width="5" height="10" fill="#FF2A2A" opacity="0.4493063261861917" />
<rect x="1714" y="82" width="5" height="10" fill="#FF2A2A" opacity="0.7178643353992002" />
<rect x="1714" y="102" width="5" height="10" fill="#FF2A2A" opacity="0.6673170303781788" />
<rect x="1714" y="122" width="5" height="10" fill="#FF2A2A" opacity="0.7489056736995976" />
<rect x="1729" y="82" width="5" height="10" fill="#FF2A2A" opacity="0.4364676558816283" />
<rect x="1729" y="102" width="5" height="10" fill="#FF2A2A" opacity="0.494428601623064" />
<rect x="1729" y="122" width="5" height="10" fill="#FF2A2A" opacity="0.6990711622100945" />
<rect x="1744" y="82" width="5" height="10" fill="#FF2A2A" opacity="0.7202528315312793" />
<rect x="1744" y="102" width="5" height="10" fill="#FF2A2A" opacity="0.7903609887594616" />
<rect x="1744" y="122" width="5" height="10" fill="#FF2A2A" opacity="0.7534644312933841" />
<rect x="1759" y="82" width="5" height="10" fill="#FF2A2A" opacity="0.6314998784180806" />
<rect x="1759" y="122" width="5" height="10" fill="#FF2A2A" opacity="0.733425677797565" />
<rect x="1788" y="100" width="69" height="50" fill="#0d1b2a" />
<rect x="1793" y="130" width="5" height="10" fill="#FF2A2A" opacity="0.439128307819403" />
<rect x="1808" y="110" width="5" height="10" fill="#FF2A2A" opacity="0.5107824133793694" />
<rect x="1808" y="130" width="5" height="10" fill="#FF2A2A" opacity="0.5351534181065234" />
<rect x="1823" y="110" width="5" height="10" fill="#FF2A2A" opacity="0.3260428041216277" />
<rect x="1823" y="130" width="5" height="10" fill="#FF2A2A" opacity="0.4121110828598741" />
<rect x="1838" y="130" width="5" height="10" fill="#FF2A2A" opacity="0.3201290687703833" />
<rect x="1857" y="105" width="41" height="45" fill="#0d1b2a" />
<rect x="1898" y="113" width="82" height="37" fill="#0d1b2a" />
<rect x="1903" y="123" width="5" height="10" fill="#FF2A2A" opacity="0.4089822704532518" />
<rect x="1918" y="123" width="5" height="10" fill="#FF2A2A" opacity="0.6834490491781204" />
<rect x="1948" y="123" width="5" height="10" fill="#FF2A2A" opacity="0.6739628259776429" />
<rect x="1980" y="110" width="92" height="40" fill="#0d1b2a" />
<rect x="1985" y="120" width="5" height="10" fill="#FF2A2A" opacity="0.3540493748288033" />
<rect x="2030" y="120" width="5" height="10" fill="#FF2A2A" opacity="0.779086419102948" />
<rect x="2060" y="120" width="5" height="10" fill="#FF2A2A" opacity="0.33799823892152997" />
</g>
  </g>
  
  <!-- Ground Line -->
  <rect x="0" y="145" width="900" height="5" fill="#050a14" />

  <!-- Cinematic Glowing Commits Text -->
  <g transform="translate(450, 75)" opacity="0.4">
    <!-- Glow shadow -->
    <text x="0" y="0" font-family="'Arial Black', Impact, sans-serif" font-size="32" font-weight="900" fill="#E23636" text-anchor="middle" filter="blur(4px)">TODAY'S COMMITS: {{TODAYS_COMMITS}}</text>
    <!-- Main text -->
    <text x="0" y="0" font-family="'Arial Black', Impact, sans-serif" font-size="32" font-weight="900" fill="#FFF" text-anchor="middle" letter-spacing="2px">TODAY'S COMMITS: {{TODAYS_COMMITS}}</text>
  </g>

  <!-- Swinging Spider-Man -->
  <g class="swing">
    
<!-- The Web Line -->
<line x1="450" y1="-200" x2="450" y2="40" stroke="#FFF" stroke-width="2" opacity="0.8" />
<line x1="450" y1="-200" x2="450" y2="40" stroke="#FFF" stroke-width="6" opacity="0.2" />

<g transform="translate(450, 70)">
  <!-- Web-holding Arm (Right Arm) -->
  <path d="M 0 -30 L 10 -10 L 5 10" fill="none" stroke="#111" stroke-width="12" stroke-linecap="round" stroke-linejoin="round" />
  
  <!-- Back Leg (Left Leg) -->
  <path d="M -10 30 Q -30 20 -40 5" fill="none" stroke="#111" stroke-width="14" stroke-linecap="round" />
  <!-- Calf/Foot -->
  <path d="M -40 5 L -45 -15" fill="none" stroke="#E23636" stroke-width="12" stroke-linecap="round" />
  
  <!-- Torso -->
  <path d="M -5 10 Q 15 15 10 35 Q -5 40 -15 30 Q -25 15 -5 10 Z" fill="#111" />
  <!-- Red Chest V-shape (Miles Morales Style) -->
  <path d="M -5 10 L 10 15 L 5 25 L -10 15 Z" fill="#E23636" />
  
  <!-- Front Leg (Right Leg) arched up -->
  <path d="M 5 35 Q 25 35 30 15" fill="none" stroke="#111" stroke-width="16" stroke-linecap="round" />
  <!-- Calf/Foot -->
  <path d="M 30 15 L 45 10" fill="none" stroke="#E23636" stroke-width="12" stroke-linecap="round" />

  <!-- Free Arm (Left Arm) -->
  <path d="M -15 15 Q -35 30 -25 45" fill="none" stroke="#111" stroke-width="10" stroke-linecap="round" />
  <!-- Red Hand -->
  <circle cx="-25" cy="45" r="5" fill="#E23636" />

  <!-- Head (Tilted Forward) -->
  <circle cx="-10" cy="-5" r="14" fill="#111" />
  <!-- Red Webbing on Head (Simplified for scale) -->
  <path d="M -10 -19 L -10 9 M -24 -5 L 4 -5" stroke="#E23636" stroke-width="1" opacity="0.5" />
  
  <!-- Eyes (Miles red rim, white center) -->
  <path d="M -18 -8 Q -10 -12 -5 -4 Q -10 0 -18 -8 Z" fill="#FFF" stroke="#E23636" stroke-width="2" />
  <path d="M -1 -4 Q 5 -10 10 -2 Q 5 2 -1 -4 Z" fill="#FFF" stroke="#E23636" stroke-width="2" />
</g>

  </g>


</svg>